<svg width="22" height="23" viewBox="0 0 22 23" fill="none" xmlns="http://www.w3.org/2000/svg">
<path d="M15.9792 0H5.14583C3.7816 0.00189198 2.47374 0.598863 1.50908 1.65999C0.544421 2.72111 0.00171998 4.15976 0 5.66042V21.1521C0.000141253 21.3287 0.04787 21.5014 0.137158 21.6482C0.226447 21.795 0.353289 21.9095 0.501666 21.9771C0.650043 22.0446 0.813299 22.0623 0.970814 22.0279C1.12833 21.9935 1.27304 21.9085 1.38667 21.7837L4.00183 18.907C4.12759 18.7683 4.27705 18.6584 4.44159 18.5835C4.60614 18.5087 4.78252 18.4704 4.96058 18.4708H15.9792C17.3434 18.4689 18.6513 17.872 19.6159 16.8108C20.5806 15.7497 21.1233 14.3111 21.125 12.8104V5.66042C21.1233 4.15976 20.5806 2.72111 19.6159 1.65999C18.6513 0.598863 17.3434 0.00189198 15.9792 0ZM19.5 12.8104C19.4989 13.8372 19.1275 14.8215 18.4675 15.5476C17.8075 16.2736 16.9126 16.6821 15.9792 16.6833H4.96058C4.56905 16.682 4.18119 16.7663 3.81948 16.9311C3.45778 17.096 3.12943 17.3383 2.8535 17.6438L1.625 18.994V5.66042C1.62615 4.63364 1.99746 3.64928 2.65749 2.92324C3.31753 2.1972 4.2124 1.78876 5.14583 1.7875H15.9792C16.9126 1.78876 17.8075 2.1972 18.4675 2.92324C19.1275 3.64928 19.4989 4.63364 19.5 5.66042V12.8104Z" fill="#397A96"/>
</svg>
